<svg data-v-0dd9719b="" version="1.0" xmlns="http://www.w3.org/2000/svg" xmlns:xlink="http://www.w3.org/1999/xlink" width="100%" height="100%" viewBox="0 0 340.000000 250.000000" preserveAspectRatio="xMidYMid meet" color-interpolation-filters="sRGB" style="margin: auto;"> <rect data-v-0dd9719b="" x="0" y="0" width="100%" height="100%" fill="#fff" fill-opacity="1" class="background"></rect> <rect data-v-0dd9719b="" x="0" y="0" width="100%" height="100%" fill="url(#watermark)" fill-opacity="1" class="watermarklayer"></rect> <g data-v-0dd9719b="" fill="#333" class="icon-text-wrapper icon-svg-group iconsvg" transform="translate(49.714996337890625,92.48073196411133)"><g class="iconsvg-imagesvg" transform="translate(0,0)"><g><rect fill="#333" fill-opacity="0" stroke-width="2" x="0" y="0" width="60.00000000000001" height="65.03853533218432" class="image-rect"></rect> <svg x="0" y="0" width="60.00000000000001" height="65.03853533218432" filtersec="colorsb6382965811" class="image-svg-svg primary" style="overflow: visible;"><svg xmlns="http://www.w3.org/2000/svg" viewBox="-0.000001907483465402038 0 92.25001525878906 99.99701690673828"><path d="M26.9 85.74L0 70.21v9.68l25.05 14.46a42.15 42.15 0 0 0 42.15 0l12.38-7.15v-9.67l-14.23 8.21a38.44 38.44 0 0 1-38.45 0z" fill="#3d30ed"></path><path d="M32 74l-6.62-3.82v9.68L29 82a34.25 34.25 0 0 0 34.23 0l16.34-9.44V62.9L60.29 74A28.28 28.28 0 0 1 32 74z" fill="#3d30ed"></path><path d="M71.18 14.46L58.79 7.31l-8.38 4.84 14.23 8.22a38.45 38.45 0 0 1 19.23 33.3v31.06l8.38-4.84V51a42.15 42.15 0 0 0-21.07-36.54z" fill="#22b573"></path><path d="M62.47 24.06l-16.34-9.43-8.39 4.84L57 30.6a28.33 28.33 0 0 1 14.2 24.54v7.64L79.58 58v-4.3a34.24 34.24 0 0 0-17.11-29.64z" fill="#22b573"></path><path d="M8.38 70.1V53.67a38.45 38.45 0 0 1 19.23-33.3l26.9-15.53L46.12 0l-25 14.46A42.15 42.15 0 0 0 0 51v14.3l.26.15z" fill="#f7931e"></path><path d="M35.22 30.6l6.62-3.82-8.38-4.84-3.68 2.12A34.24 34.24 0 0 0 12.67 53.7v18.87l8.38 4.84V55.14A28.33 28.33 0 0 1 35.22 30.6z" fill="#f7931e"></path></svg></svg> <!----></g></g> <g transform="translate(67,16.6842679977417)"><g data-gra="path-name" fill-rule="" class="tp-name iconsvg-namesvg"><g transform="scale(1)"><g><path d="M16.47-9.18Q16.47-6.29 15.38-5.11 14.3-3.94 12.76-3.94L12.76-3.94Q11.22-3.94 9.5-5.59 7.78-7.24 7.55-10.09L7.55-10.09 4.98-9.18Q5.07-4.89 7.26-2.53 9.45-0.18 12.76-0.18L12.76-0.18Q16.1-0.18 18.55-2.28 20.99-4.39 20.99-8.91L20.99-8.91 20.99-31.67 16.47-31.67 16.47-9.18ZM50.35-13.57Q50.35-8.55 48.7-6.06 47.05-3.57 42.61-3.57L42.61-3.57Q38.14-3.57 36.64-6.15 35.15-8.73 35.15-13.57L35.15-13.57 35.15-31.67 30.76-31.67 30.76-13.57Q30.76-6.88 33.41-3.44 36.05 0 42.61 0L42.61 0Q48.99 0 51.64-3.78 54.28-7.55 54.28-13.57L54.28-13.57 54.28-31.67 50.35-31.67 50.35-13.57ZM66.18-27.91L73.47-27.91Q76.9-27.91 78.76-26.8 80.61-25.69 80.61-22.44L80.61-22.44Q80.61-19.23 78.74-17.91 76.86-16.6 73.47-16.6L73.47-16.6 66.18-16.6 66.18-27.91ZM66.18-12.8L73.47-12.8Q78.71-12.8 81.74-15.15L81.74-15.15Q84.78-17.46 84.78-22.44L84.78-22.44Q84.78-27.69 81.7-29.68L81.7-29.68Q78.53-31.67 73.1-31.67L73.1-31.67 61.79-31.67 61.79 0 65.5 0Q65.78 0 65.98-0.2 66.18-0.41 66.18-0.68L66.18-0.68 66.18-12.8ZM95.63-31.67L91.15-31.67 91.15 0 94.95 0Q95.22 0 95.43-0.2 95.63-0.41 95.63-0.68L95.63-0.68 95.63-31.67ZM113.23 0Q113.5 0 113.7-0.2 113.91-0.41 113.91-0.68L113.91-0.68 113.91-27.91 121.87-27.91Q122.14-27.91 122.34-28.12 122.55-28.32 122.55-28.59L122.55-28.59 122.55-31.67 100.88-31.67 100.88-27.91 109.47-27.91 109.47 0 113.23 0ZM148.56 0Q148.83 0 149.03-0.2 149.24-0.41 149.24-0.68L149.24-0.68 149.24-3.75 131.23-3.75 131.23-14.52 147.61-14.52Q147.88-14.52 148.08-14.72 148.29-14.93 148.29-15.2L148.29-15.2 148.29-18.23 131.23-18.23 131.14-27.96 147.84-27.96Q148.11-27.96 148.31-28.16 148.51-28.36 148.51-28.64L148.51-28.64 148.51-31.67 126.62-31.67 126.62 0 148.56 0ZM159.51-27.91L166.79-27.91Q170.27-27.91 172.13-26.8 173.98-25.69 173.98-22.44L173.98-22.44Q173.98-19.27 172.13-18.12 170.27-16.96 166.79-16.96L166.79-16.96 159.51-16.96 159.51-27.91ZM169.82-13.57Q178.55-14.57 178.55-22.44L178.55-22.44Q178.55-27.73 175.25-29.68L175.25-29.68Q171.9-31.67 166.43-31.67L166.43-31.67 155.12-31.67 155.12 0 158.83 0Q159.1 0 159.3-0.2 159.51-0.41 159.51-0.68L159.51-0.68 159.51-13.39 165.48-13.39 173.58 0 178.1 0 169.82-13.57Z" transform="translate(-4.980000019073486, 31.670000076293945)"></path></g> <!----> <!----> <!----> <!----> <!----> <!----> <!----></g></g> <!----></g></g><defs v-gra="od"></defs></svg>